<?xml version="1.0" encoding="utf-8"?>
<!-- Generator: Adobe Illustrator 22.0.1, SVG Export Plug-In . SVG Version: 6.00 Build 0)  -->
<svg version="1.1" id="Слой_1" xmlns="http://www.w3.org/2000/svg" xmlns:xlink="http://www.w3.org/1999/xlink" x="0px" y="0px"
	 viewBox="0 0 32 32" style="enable-background:new 0 0 32 32;" xml:space="preserve">
<style type="text/css">
	.st0{fill:#FF7442;}
</style>
<g>
	<g>
		<g>
			<g>
				<path class="st0" d="M15.9,31.6c-8.6,0-15.5-7-15.5-15.5c0-8.6,7-15.5,15.5-15.5c8.6,0,15.5,7,15.5,15.5
					C31.4,24.6,24.4,31.6,15.9,31.6z M15.9,2.2C8.2,2.2,2,8.4,2,16c0,7.6,6.2,13.9,13.9,13.9c7.6,0,13.9-6.2,13.9-13.9
					C29.7,8.4,23.5,2.2,15.9,2.2z"/>
			</g>
		</g>
		<g>
			<path class="st0" d="M16.8,6.7C10.9,6.2,6,11,6.5,16.9c0.4,4.5,4,8.1,8.5,8.5c5.9,0.5,10.7-4.4,10.2-10.2
				C24.9,10.7,21.2,7.1,16.8,6.7z M22.1,11.4c0.9,1.2,1.5,2.6,1.5,4.2c0,0.1-0.1,0.2-0.2,0.1c-1.7-0.4-3.4-0.4-4.9-0.2
				c-0.1,0-0.1,0-0.2-0.1c-0.2-0.4-0.4-0.8-0.5-1.2c0-0.1,0-0.2,0.1-0.2c1.4-0.7,2.8-1.5,3.9-2.7C21.9,11.3,22,11.3,22.1,11.4z
				 M20.7,10.2c-1,1.1-2.2,1.8-3.5,2.4c-0.1,0-0.2,0-0.2-0.1c-0.9-1.7-1.8-3-2.5-3.9c-0.1-0.1,0-0.2,0.1-0.2
				c0.4-0.1,0.9-0.1,1.4-0.1c1.8,0,3.5,0.6,4.8,1.7C20.8,10,20.8,10.1,20.7,10.2z M12.7,9.1c0.7,0.8,1.7,2.1,2.7,4
				c0,0.1,0,0.2-0.1,0.2c-2,0.6-4.2,0.8-6.7,0.9c-0.1,0-0.2-0.1-0.1-0.2c0.6-2.2,2.1-4,4.1-5C12.6,9.1,12.6,9.1,12.7,9.1z M8.3,15.9
				c2.7-0.1,5.4-0.3,7.8-1.1c0.1,0,0.1,0,0.2,0.1c0.1,0.3,0.3,0.6,0.4,1c0,0.1,0,0.2-0.1,0.2c-2.4,0.8-4.6,2.4-6.6,4.8
				c-0.1,0.1-0.2,0.1-0.2,0c-1.1-1.2-1.7-2.9-1.7-4.8C8.2,16,8.2,15.9,8.3,15.9z M11.3,22.1c1.8-2.3,3.8-3.8,6-4.5
				c0.1,0,0.2,0,0.2,0.1c0.6,1.6,1.1,3.4,1.4,5.4c0,0.1,0,0.1-0.1,0.2c-0.9,0.3-1.8,0.5-2.8,0.5c-1.7,0-3.3-0.6-4.6-1.5
				C11.3,22.2,11.2,22.1,11.3,22.1z M20.4,22.1c-0.3-1.7-0.7-3.3-1.2-4.7c0-0.1,0-0.2,0.1-0.2c1.3-0.1,2.6,0,4.1,0.3
				c0.1,0,0.1,0.1,0.1,0.2c-0.4,1.8-1.4,3.4-2.9,4.5C20.5,22.2,20.4,22.2,20.4,22.1z"/>
		</g>
	</g>
</g>
</svg>
