<?xml version="1.0" encoding="utf-8"?>
<!-- Generator: Adobe Illustrator 22.0.1, SVG Export Plug-In . SVG Version: 6.00 Build 0)  -->
<svg version="1.1" id="Слой_1" xmlns="http://www.w3.org/2000/svg" xmlns:xlink="http://www.w3.org/1999/xlink" x="0px" y="0px"
	 viewBox="0 0 32 32" style="enable-background:new 0 0 32 32;" xml:space="preserve">
<style type="text/css">
	.st0{fill:#2E3187;}
</style>
<g>
	<g>
		<path class="st0" d="M16,31.4C7.5,31.4,0.6,24.5,0.6,16C0.6,7.5,7.5,0.6,16,0.6S31.4,7.5,31.4,16C31.4,24.5,24.5,31.4,16,31.4z
			 M16,2C8.3,2,2,8.3,2,16c0,7.7,6.3,14,14,14c7.7,0,14-6.3,14-14C30,8.3,23.7,2,16,2z M21.2,9.7c-0.6,0-1.1,0.5-1.1,1.1
			c0,0.6,0.5,1.1,1.1,1.1s1.1-0.5,1.1-1.1C22.4,10.2,21.8,9.7,21.2,9.7z M16.1,11.2c-2.6,0-4.8,2.2-4.8,4.8c0,2.6,2.2,4.8,4.8,4.8
			c2.6,0,4.8-2.2,4.8-4.8C20.9,13.4,18.8,11.2,16.1,11.2z M16.1,19.1c-1.7,0-3.1-1.4-3.1-3.1c0-1.7,1.4-3.1,3.1-3.1
			c1.7,0,3.1,1.4,3.1,3.1C19.2,17.7,17.8,19.1,16.1,19.1z M25.8,12c0-3.2-2.6-5.9-5.9-5.9h-7.7C9,6.2,6.4,8.8,6.4,12v7.7
			c0,3.2,2.6,5.9,5.9,5.9H20c3.2,0,5.9-2.6,5.9-5.9V12z M24,19.7c0,2.2-1.8,4-4,4h-7.7c-2.2,0-4-1.8-4-4V12c0-2.2,1.8-4,4-4H20
			c2.2,0,4,1.8,4,4V19.7z"/>
	</g>
</g>
</svg>
