<?xml version="1.0" encoding="utf-8"?>
<!-- Generator: Adobe Illustrator 22.0.1, SVG Export Plug-In . SVG Version: 6.00 Build 0)  -->
<svg version="1.1" id="Слой_1" xmlns="http://www.w3.org/2000/svg" xmlns:xlink="http://www.w3.org/1999/xlink" x="0px" y="0px"
	 viewBox="0 0 32 32" style="enable-background:new 0 0 32 32;" xml:space="preserve">
<style type="text/css">
	.st0{fill:#2E3187;}
</style>
<g>
	<g>
		<g>
			<g>
				<path class="st0" d="M15.9,31.6c-8.6,0-15.5-7-15.5-15.5c0-8.6,7-15.5,15.5-15.5c8.6,0,15.5,7,15.5,15.5
					C31.5,24.6,24.5,31.6,15.9,31.6z M15.9,2.2C8.3,2.2,2.1,8.4,2.1,16c0,7.6,6.2,13.9,13.9,13.9c7.6,0,13.9-6.2,13.9-13.9
					C29.8,8.4,23.6,2.2,15.9,2.2z"/>
			</g>
			<g>
				<g>
					<path class="st0" d="M24.7,17.2V23c0,0.1-0.1,0.3-0.3,0.3h-3c-0.1,0-0.3-0.1-0.3-0.3v-5.4c0-1.4-0.5-2.4-1.8-2.4
						c-1,0-1.5,0.7-1.8,1.3c-0.1,0.2-0.1,0.5-0.1,0.9V23c0,0.1-0.1,0.3-0.3,0.3h-3c-0.1,0-0.3-0.1-0.3-0.3c0-1.4,0-8.4,0-10
						c0-0.1,0.1-0.3,0.3-0.3h3c0.1,0,0.3,0.1,0.3,0.3v1.2c0,0,0,0,0,0h0v0c0.5-0.7,1.3-1.7,3.2-1.7C23,12.5,24.7,14,24.7,17.2
						L24.7,17.2z M8.8,23.3h3c0.1,0,0.3-0.1,0.3-0.3V13c0-0.1-0.1-0.3-0.3-0.3h-3c-0.1,0-0.3,0.1-0.3,0.3v10
						C8.5,23.1,8.7,23.3,8.8,23.3z"/>
				</g>
			</g>
		</g>
		<g>
			<circle class="st0" cx="10.2" cy="9.5" r="1.9"/>
		</g>
	</g>
</g>
</svg>
