<?xml version="1.0" encoding="utf-8"?>
<!-- Generator: Adobe Illustrator 22.0.1, SVG Export Plug-In . SVG Version: 6.00 Build 0)  -->
<svg version="1.1" id="Слой_1" xmlns="http://www.w3.org/2000/svg" xmlns:xlink="http://www.w3.org/1999/xlink" x="0px" y="0px"
	 viewBox="0 0 32 32" style="enable-background:new 0 0 32 32;" xml:space="preserve">
<style type="text/css">
	.st0{fill:#2E3187;}
</style>
<g>
	<g>
		<g>
			<path class="st0" d="M15.9,31.6c-8.6,0-15.6-7-15.6-15.6c0-8.6,7-15.6,15.6-15.6c8.6,0,15.6,7,15.6,15.6
				C31.5,24.6,24.5,31.6,15.9,31.6z M15.9,2.1C8.3,2.1,2,8.3,2,16c0,7.7,6.2,13.9,13.9,13.9c7.7,0,13.9-6.2,13.9-13.9
				C29.8,8.3,23.6,2.1,15.9,2.1z"/>
		</g>
		<g>
			<g>
				<path class="st0" d="M25.2,13.6c0-2.2-1.8-4-4-4H10.9c-2.2,0-4,1.8-4,4v4.9c0,2.2,1.8,4,4,4h10.4c2.2,0,4-1.8,4-4V13.6z
					 M18.7,16.3l-4.1,2.3c-0.2,0.1-0.3,0-0.3-0.2v-4.7c0-0.2,0.2-0.3,0.3-0.2l4.2,2.4C18.9,15.9,18.9,16.2,18.7,16.3z"/>
			</g>
		</g>
	</g>
</g>
</svg>
